HIERARCHY
ROOT pelvis
{
  OFFSET 0 100 0
  CHANNELS 6 Xposition Yposition Zposition Zrotation Xrotation Yrotation
  JOINT pelvis_right_femur
  {
    OFFSET -10.78128 -3.44521 -0.5502486
    CHANNELS 3 Zrotation Xrotation Yrotation
    JOINT right_femur_tibia
    {
      OFFSET -0.8047443 -44.0398 -0.1307829
      CHANNELS 3 Zrotation Xrotation Yrotation
      JOINT right_tibia_foot
      {
        OFFSET 3.006224 -47.83518 -5
        CHANNELS 3 Zrotation Xrotation Yrotation
        End Site
        {
          OFFSET 0 -5 15
        }
      }
    }
  }
  JOINT pelvis_left_femur
  {
    OFFSET 10.78128 -3.44521 -0.5502486
    CHANNELS 3 Zrotation Xrotation Yrotation
    JOINT left_femur_tibia
    {
      OFFSET 0.8047443 -44.0398 -0.1307829
      CHANNELS 3 Zrotation Xrotation Yrotation
      JOINT left_tibia_foot
      {
        OFFSET -4.370144 -48.10324 -4.275266
        CHANNELS 3 Zrotation Xrotation Yrotation
        End Site
        {
          OFFSET 0 -5 15
        }
      }
    }
  }
  JOINT pelvis_spine1
  {
    OFFSET 0 6.468898 -3.129235
    CHANNELS 3 Zrotation Xrotation Yrotation
    JOINT spine1
    {
      OFFSET 0 23.15396 4.99043
      CHANNELS 3 Zrotation Xrotation Yrotation
      JOINT spine2
      {
        OFFSET 0 20.79997 -5.064912
        CHANNELS 3 Zrotation Xrotation Yrotation
        JOINT neck
        {
          OFFSET 0 14.38658 9.616178
          CHANNELS 3 Zrotation Xrotation Yrotation
          End Site
          {
            OFFSET 0 20 0
          }
        }
      }
      JOINT right_manubrium
      {
        OFFSET -5.722621 16.35077 3.967754
        CHANNELS 3 Zrotation Xrotation Yrotation
        JOINT right_clavicle
        {
          OFFSET -13.16364 1.694482 -4.693211
          CHANNELS 3 Zrotation Xrotation Yrotation
          JOINT right_humerus
          {
            OFFSET -28.5034 -0.3100689 -2.792744
            CHANNELS 3 Zrotation Xrotation Yrotation
            JOINT right_radius
            {
              OFFSET -25.15693 0.02248979 -1.271978
              CHANNELS 3 Zrotation Xrotation Yrotation
              End Site
              {
                OFFSET -15 0 0
              }
            }
          }
        }
      }
      JOINT left_manubrium
      {
        OFFSET 5.722621 16.35077 3.967754
        CHANNELS 3 Zrotation Xrotation Yrotation
        JOINT left_clavicle
        {
          OFFSET 13.16364 1.694482 -4.693211
          CHANNELS 3 Zrotation Xrotation Yrotation
          JOINT left_humerus
          {
            OFFSET 29.39168 -1.063119 -2.237045
            CHANNELS 3 Zrotation Xrotation Yrotation
            JOINT left_radius
            {
              OFFSET 24.59957 -0.9528479 0.9047498
              CHANNELS 3 Zrotation Xrotation Yrotation
              End Site
              {
                OFFSET 15 -0 -0
              }
            }
          }
        }
      }
    }
  }
}
MOTION
Frames: 16
Frame Time: 0.0416666666667
0 103.5113 0 -0.009758123 2.158424 0.4613929 3.834057 -15.22765 7.068811 1.175308e-06 35.28151 -6.212267e-07 -7.4469 -11.87634 -0.2769287 -6.945083 4.341707 -21.26906 -2.394355e-06 3.35625 8.215421e-07 5.636781 -17.27235 22.62771 -3.469686 -2.772218 4.562258 2.573782 8.831139 -7.603163 0.2539743 21.00792 8.379935 4.415243 -26.2931 8.929196 7.174937 -20.39281 12.09744 83.49345 39.07462 -16.58654 -3.185825e-10 -4.67814e-07 17.13538 -8.180339 8.999521 6.808146 5.149919 -19.12266 -1.530396 -96.25334 29.24154 27.02111 -4.628752e-07 -4.243138e-07 -15.61315 3.340324 15.59552 10.42558
0.6382133 103.758 2.195245 0.03561088 2.089883 0.9985916 3.696507 -16.71638 7.096909 1.0526e-06 37.09578 -5.164054e-07 -7.313032 -11.06189 -0.5448222 -7.119178 6.124049 -21.57299 -2.191156e-06 3.307034 1.352452e-06 5.611085 -17.86679 22.60855 -3.604804 -2.735459 4.319397 2.594318 8.759384 -7.728411 0.2749346 21.13702 8.509951 4.492159 -26.28785 9.069825 7.313142 -19.98261 12.02709 84.22191 39.16806 -17.36042 6.215795e-09 -4.643384e-07 16.51574 -8.057537 8.886692 6.611103 5.216393 -19.20629 -1.582614 -96.08419 29.5653 26.27864 -4.444835e-07 -3.476548e-07 -15.95995 3.32994 15.55205 10.50639
1.255067 104.0178 4.425992 0.04098573 2.055268 1.584448 3.675217 -18.48583 7.034133 1.056004e-06 37.5486 -4.693852e-07 -7.229454 -10.4472 -0.8405951 -7.1568 7.956577 -21.68924 -1.833931e-06 3.35954 1.701027e-06 5.517237 -18.48318 22.45444 -3.66559 -2.694984 4.074197 2.649581 8.704241 -7.904391 0.2982976 21.2269 8.595295 4.535355 -26.25718 9.169257 7.341878 -19.58821 11.95311 85.03744 39.11216 -18.29935 1.879874e-08 -4.47608e-07 15.81524 -7.979676 8.84553 6.398005 5.346761 -19.44405 -1.672836 -95.68169 29.77967 25.28403 -4.143324e-07 -2.942182e-07 -16.68668 3.425521 15.53348 10.42816
1.830489 104.2072 6.707366 -0.003004964 2.077929 2.179495 3.787996 -20.42534 6.883311 1.214986e-06 36.36608 -4.994138e-07 -7.211687 -10.14237 -1.132895 -7.044286 9.674355 -21.59431 -1.332752e-06 3.473064 1.799842e-06 5.363491 -19.07254 22.16113 -3.638034 -2.656596 3.849019 2.743591 8.666642 -8.123807 0.319921 21.25449 8.623186 4.536542 -26.20524 9.211956 7.249642 -19.24804 11.8818 85.83528 38.91028 -19.31925 3.656212e-08 -4.181588e-07 15.09333 -7.941913 8.887817 6.181418 5.538737 -19.83109 -1.791032 -95.03798 29.84662 24.09474 -3.725917e-07 -2.744585e-07 -17.7803 3.635134 15.54397 10.17015
2.344351 104.2536 9.0771 -0.07782805 2.10196 2.750304 4.003596 -22.52062 6.669048 1.480529e-06 33.8474 -5.666909e-07 -7.202862 -10.06553 -1.470714 -6.811554 11.33424 -21.2846 -6.930013e-07 3.815992 1.717167e-06 5.071387 -19.64889 21.72388 -3.533748 -2.600885 3.64051 2.85942 8.645325 -8.379612 0.3504489 21.25833 8.599947 4.501902 -26.09868 9.207426 7.050847 -18.92358 11.8105 86.72324 38.54065 -20.46206 5.345994e-08 -3.780741e-07 14.32971 -7.991034 9.015906 5.96854 5.790221 -20.35459 -1.94137 -94.22734 29.79751 22.67829 -3.096186e-07 -2.756156e-07 -19.23088 3.89781 15.53602 9.820969
2.787053 104.1115 11.54535 -0.1830493 2.150539 3.266504 4.299127 -24.48886 6.423138 1.808589e-06 30.29622 -6.484869e-07 -7.233462 -10.23144 -1.781705 -6.494274 12.70642 -20.81761 -1.386736e-08 4.298503 1.457147e-06 4.717194 -20.10877 21.19303 -3.364945 -2.545359 3.472363 2.988028 8.637037 -8.634674 0.3802325 21.20702 8.526116 4.434125 -25.95937 9.14949 6.774978 -18.65451 11.74319 87.44676 38.0772 -21.51269 6.98744e-08 -3.337957e-07 13.61517 -8.072334 9.197396 5.771206 6.056711 -20.92689 -2.09631 -93.27332 29.6231 21.22895 -2.415604e-07 -3.01522e-07 -20.80882 4.203534 15.52292 9.38485
3.150571 103.773 14.14164 -0.2909582 2.159225 3.711301 4.634247 -26.33613 6.194386 2.118568e-06 26.38022 -6.9442e-07 -7.243897 -10.46852 -2.123839 -6.148611 13.93145 -20.23767 6.623634e-07 5.213514 1.169915e-06 4.227443 -20.46278 20.58176 -3.159263 -2.470422 3.330955 3.109938 8.640953 -8.881013 0.4196217 21.15534 8.424383 4.353634 -25.76713 9.062588 6.472332 -18.37193 11.67901 88.15975 37.54248 -22.55066 7.797723e-08 -2.920682e-07 12.89343 -8.204807 9.416051 5.579139 6.320637 -21.51437 -2.258039 -92.29383 29.39889 19.73195 -1.61335e-07 -3.289226e-07 -22.44897 4.475337 15.45585 8.981798
3.440626 103.2765 16.88691 -0.3783921 2.084899 4.081401 4.947573 -27.7688 6.011993 2.339554e-06 22.86262 -6.906418e-07 -7.219098 -10.64338 -2.469272 -5.835045 14.87411 -19.60759 1.224698e-06 6.60727 9.461147e-07 3.63133 -20.63014 19.95349 -2.945474 -2.377623 3.22775 3.194803 8.659918 -9.071975 0.4702778 21.11726 8.304832 4.270811 -25.51638 8.956019 6.181905 -18.07865 11.61722 88.74837 36.97743 -23.42204 7.619189e-08 -2.593596e-07 12.22045 -8.386487 9.631019 5.413269 6.53076 -22.01466 -2.414507 -91.37556 29.16619 18.35146 -8.079256e-08 -3.446623e-07 -23.88237 4.654708 15.32296 8.69265
3.672127 102.7201 19.82024 -0.4139323 1.849373 4.3861 5.200702 -28.578 5.939555 2.379873e-06 20.59823 -6.171653e-07 -7.108499 -10.58755 -2.850667 -5.61669 15.49844 -18.97485 1.552309e-06 8.922564 9.567219e-07 2.859911 -20.53318 19.35066 -2.750023 -2.250122 3.173717 3.212589 8.706945 -9.177079 0.542087 21.15418 8.188028 4.209471 -25.19598 8.850671 5.968416 -17.73361 11.56909 89.33124 36.42493 -24.13446 5.379279e-08 -2.471085e-07 11.59429 -8.641391 9.823477 5.279663 6.642666 -22.35809 -2.563073 -90.71296 29.01686 17.19546 3.383239e-09 -3.225097e-07 -24.92598 4.642774 15.07844 8.669918
3.867224 102.256 22.95355 -0.4057121 1.456071 4.637506 5.399356 -28.50881 5.991222 2.181593e-06 19.98401 -4.792544e-07 -6.997553 -10.20497 -3.193879 -5.513174 15.64137 -18.38832 1.487107e-06 12.38467 1.289918e-06 1.998322 -20.00815 18.80551 -2.56999 -2.112011 3.180251 3.156583 8.801799 -9.162025 0.6267366 21.23335 8.070951 4.174589 -24.83613 8.736601 5.85318 -17.35126 11.54039 89.69396 35.94219 -24.5439 1.63084e-08 -2.630336e-07 11.01625 -8.893558 9.951386 5.159794 6.593143 -22.47211 -2.699348 -90.25349 28.94327 16.42349 6.320434e-08 -2.565095e-07 -25.34332 4.473581 14.76304 8.866773
4.041829 102.0271 26.29475 -0.3734369 0.9348427 4.835453 5.59669 -27.58013 6.162212 1.765778e-06 20.60615 -2.787011e-07 -6.930972 -9.594177 -3.483038 -5.481022 15.23784 -17.81305 9.914691e-07 17.12133 1.941472e-06 1.055256 -19.01164 18.30685 -2.379727 -1.970775 3.260483 3.043534 8.95669 -9.040709 0.7194276 21.33878 7.943277 4.162201 -24.45865 8.601047 5.821044 -16.95635 11.54311 89.85081 35.53463 -24.69067 -3.617617e-08 -3.074604e-07 10.48496 -9.125822 10.03729 5.043628 6.389557 -22.39723 -2.825305 -89.98345 28.91377 16.04498 9.641782e-08 -1.548543e-07 -25.21187 4.189495 14.39734 9.227127
4.200659 102.1347 29.85701 -0.3524069 0.3459842 4.948434 5.89565 -25.71918 6.46215 1.201442e-06 21.45362 -2.257903e-08 -6.945523 -9.08824 -3.697028 -5.421527 14.004 -17.14217 2.535642e-08 23.33594 2.842788e-06 -0.009684223 -17.45639 17.83571 -2.127633 -1.827373 3.46973 2.901723 9.186809 -8.834131 0.8126912 21.44979 7.779656 4.161294 -24.08971 8.413538 5.846256 -16.62608 11.60767 89.84216 35.22023 -24.61254 -1.131973e-07 -3.824909e-07 10.08989 -9.347055 10.15302 4.945082 6.059309 -22.20707 -2.92816 -89.98074 28.86989 16.12727 1.153451e-07 -4.104485e-08 -24.70399 3.815582 13.98219 9.712096
4.3364 102.656 33.62617 -0.3805995 -0.2233605 4.929112 6.347708 -23.04063 6.862192 5.513023e-07 21.89201 2.657243e-07 -7.118558 -8.838955 -3.786416 -5.268314 11.91659 -16.36329 -1.496044e-06 30.92546 4.05567e-06 -1.119993 -15.32471 17.38208 -1.787965 -1.701795 3.809431 2.764273 9.487184 -8.565885 0.8918991 21.50538 7.568937 4.163369 -23.76653 8.155147 5.910872 -16.38567 11.73599 89.53584 35.03833 -24.30927 -2.102716e-07 -4.871876e-07 9.819213 -9.475452 10.30698 4.831981 5.615837 -21.94111 -2.998214 -90.10304 28.75159 16.64376 1.127523e-07 6.643759e-08 -23.91898 3.436658 13.56076 10.1943
4.461487 103.541 37.60587 -0.4193075 -0.7861901 4.739868 6.790998 -19.35173 7.246694 -4.432938e-08 21.60266 5.127098e-07 -7.260872 -9.133888 -3.765207 -4.968698 8.684516 -15.41665 -3.383261e-06 38.43747 5.33301e-06 -2.24375 -12.90421 17.09121 -1.406851 -1.566617 4.318893 2.591267 9.813391 -8.209883 0.9667146 21.55102 7.302344 4.138234 -23.4318 7.840346 5.939123 -16.40431 11.91507 89.00424 34.87772 -23.58708 -3.278252e-07 -5.984858e-07 10.04069 -9.756871 10.54693 4.893045 5.149075 -21.59079 -3.011648 -90.61402 28.55784 17.70935 1.205974e-07 1.388809e-07 -22.88756 2.94274 13.08939 10.80868
4.584337 104.6881 41.77084 -0.4677244 -1.280704 4.366798 7.149627 -15.13245 7.521942 -4.907749e-07 20.5154 6.669058e-07 -7.345297 -9.891567 -3.634506 -4.517619 4.749477 -14.36753 -5.331465e-06 44.76803 6.471178e-06 -3.242917 -10.50734 16.95482 -1.026358 -1.434736 4.915824 2.39587 10.10887 -7.797972 1.030954 21.54038 6.994144 4.07185 -23.07435 7.490663 5.888185 -16.65251 12.0928 88.13152 34.68471 -22.44999 -4.44177e-07 -6.976549e-07 10.69048 -10.1609 10.82397 5.116828 4.717519 -21.17843 -2.974248 -91.21593 28.2671 19.06648 1.357709e-07 1.653163e-07 -21.73079 2.41275 12.61228 11.43034
4.719435 105.9356 46.08149 -0.5017409 -1.67982 3.829002 7.324464 -10.80914 7.623483 -7.177818e-07 18.89334 6.953076e-07 -7.298676 -10.9997 -3.410746 -3.959936 0.542212 -13.3143 -6.733073e-06 48.64938 6.934964e-06 -3.990732 -8.515316 17.00015 -0.7126685 -1.314517 5.525121 2.176507 10.32258 -7.357141 1.083455 21.48219 6.674865 3.958617 -22.69421 7.151964 5.726903 -17.13374 12.22791 86.98322 34.39263 -20.93067 -5.393461e-07 -7.638085e-07 11.77466 -10.7259 11.09408 5.536546 4.388063 -20.72465 -2.89341 -91.82823 27.90408 20.5508 1.597441e-07 1.392651e-07 -20.53245 1.879411 12.174 12.01573
